# xmcd
#
# Track frame offsets: 
#        150
#        12662
#        25160
#        35902
#        46257
#        64392
#        76820
#        88572
#        100952
#        112837
#        125730
#        138995
#        152955
#        163995
#        175930
#        186575
#        199300
#        210802
#        223222
#        236307
#        250325
#        265642
#        280177
#        292392
#
# Disc length: 4070 seconds
#
# Revision: 0
# Processed by: cddbd v1.5.2PL0 Copyright (c) Steve Scherf et al.
# Submitted via: ExactAudioCopyFreeDBPlugin 1.0
#
DISCID=6d0fe418
DTITLE=Various Artist - Chicago Blues -A Quarter Century- [CD2-Straight Ch
DTITLE=icago Blues-)
DYEAR=1900
DGENRE=Blues
TTITLE0=Louis Myers - Just Wailing
TTITLE1=Louis Myers - Bluesy
TTITLE2=Big Walter Horton - Have A Good Time
TTITLE3=Big Walter Horton - Need My Baby
TTITLE4=Sonny Boy Williamson - Steady Rollin' Man
TTITLE5=Little Willie Foster - Crying The Blues
TTITLE6=Little Willie Foster - Little Girl
TTITLE7=Snooky Pryor - Boogie Twist
TTITLE8=Junior Wells with Earl Hooker - Calling All Blues
TTITLE9=Sunnyland Slim - Down Home Child
TTITLE10=Sunnyland Slim - Over Night
TTITLE11=Sunnyland Slim - Highway 61
TTITLE12=Robert Jr. Lockwood - Pearly B
TTITLE13=Lee Jackson - Fishin' In My Pond
TTITLE14=Lee Jackson - I'll Just Keep Walking
TTITLE15=Arbee Stidham - When I Find My Baby
TTITLE16=Arbee Stidham - Pleae Let It Be Me
TTITLE17=Homesick James - Crossroads
TTITLE18=Morris Pejoe - Maybe Blues
TTITLE19=Otis Rush - I Can't Quit You Baby
TTITLE20=Magic Sam - Easy Baby
TTITLE21=Buddy Guy - Sit And Cry
TTITLE22=Buddy Guy - Try To Quit You Baby
TTITLE23=Shakey Jake with Magic Sam - Call Me If You Need Me
EXTD=
EXTT0=
EXTT1=
EXTT2=
EXTT3=
EXTT4=
EXTT5=
EXTT6=
EXTT7=
EXTT8=
EXTT9=
EXTT10=
EXTT11=
EXTT12=
EXTT13=
EXTT14=
EXTT15=
EXTT16=
EXTT17=
EXTT18=
EXTT19=
EXTT20=
EXTT21=
EXTT22=
EXTT23=
PLAYORDER=
